<mxfile host="app.diagrams.net" modified="2023-03-23T03:29:03.707Z" agent="5.0 (Windows NT 10.0; Win64; x64) AppleWebKit/537.36 (KHTML, like Gecko) Chrome/111.0.0.0 Safari/537.36" etag="cLl1SYcf18gHo443DY-r" version="21.0.10" type="github">
  <diagram name="第 1 页" id="_jwn_sf9cHuh7UNdUD1w">
    <mxGraphModel dx="662" dy="358" grid="1" gridSize="10" guides="1" tooltips="1" connect="1" arrows="1" fold="1" page="1" pageScale="1" pageWidth="827" pageHeight="1169" math="0" shadow="0">
      <root>
        <mxCell id="0" />
        <mxCell id="1" parent="0" />
        <mxCell id="p9zRmzptBgsjuif3d40y-15" value="AAAAA" style="ellipse;whiteSpace=wrap;html=1;" vertex="1" parent="1">
          <mxGeometry x="290" y="270" width="120" height="80" as="geometry" />
        </mxCell>
      </root>
    </mxGraphModel>
  </diagram>
</mxfile>
